<svg width="25" height="26" viewBox="0 0 25 26" fill="none" xmlns="http://www.w3.org/2000/svg">
<path d="M1.06273 1.26339L1.06271 1.26338C0.947982 1.22251 0.811335 1.28002 0.764695 1.41441L1.06273 1.26339ZM1.06273 1.26339L1.4593 1.40467L1.45931 1.40467M1.06273 1.26339L1.45931 1.40467M1.45931 1.40467C2.28513 1.69884 2.92614 1.92843 3.41947 2.17372L3.41948 2.17373M1.45931 1.40467L3.41948 2.17373M3.41948 2.17373C3.92982 2.42747 4.30551 2.70872 4.58242 3.11934C4.85916 3.52971 4.98966 3.99877 5.05338 4.59528C5.08198 4.86302 5.09795 5.16835 5.10651 5.51854L5.12438 6.25023M3.41948 2.17373L5.12438 6.25023M5.12438 6.25023H5.85628M5.12438 6.25023H5.85628M5.85628 6.25023H19.8537C20.9763 6.25023 21.9822 6.25126 22.7801 6.34164C23.1772 6.38662 23.4873 6.45034 23.7149 6.53138C23.9479 6.61436 24.0302 6.69275 24.0532 6.72313L24.0533 6.72319M5.85628 6.25023L24.0533 6.72319M24.0533 6.72319C24.1881 6.90075 24.2783 7.16857 24.2419 7.76683C24.2045 8.3801 24.0466 9.19037 23.8143 10.3698C23.8142 10.3706 23.814 10.3714 23.8138 10.3722L23.1571 13.6006L23.1571 13.6006M24.0533 6.72319L23.1571 13.6006M23.1571 13.6006C22.9461 14.6381 22.8 15.3501 22.6232 15.8816M23.1571 13.6006L22.6232 15.8816M4.19653 3.40904L4.19654 3.40906C4.40954 3.72493 4.52396 4.10133 4.5827 4.65118M4.19653 3.40904L5.66329 16.2759C5.20526 15.7863 4.95774 15.298 4.81605 14.4597C4.66536 13.5682 4.64244 12.3325 4.64244 10.3535V6.88463C4.64244 5.91475 4.6421 5.20727 4.5827 4.65118M4.19653 3.40904C3.98382 3.09362 3.68667 2.85913 3.2179 2.62607L4.19653 3.40904ZM4.5827 4.65118L3.83694 4.73085L4.58269 4.65117C4.58269 4.65118 4.5827 4.65118 4.5827 4.65118ZM0.911483 1.73711L0.911503 1.73712L1.25519 1.85957C1.25519 1.85957 1.25519 1.85957 1.2552 1.85957C2.11608 2.16628 2.74356 2.39022 3.21789 2.62606L0.911483 1.73711ZM0.911483 1.73711C0.792029 1.69456 0.716538 1.55325 0.764688 1.41443L0.911483 1.73711ZM22.6232 15.8816C22.4527 16.3944 22.2799 16.6528 22.0666 16.8289M22.6232 15.8816L22.0666 16.8289M22.0666 16.8289C21.8544 17.0042 21.5727 17.1222 21.0465 17.1874M22.0666 16.8289L21.0465 17.1874M21.0465 17.1874C20.4991 17.2553 19.7834 17.2567 18.7374 17.2567M21.0465 17.1874L18.7374 17.2567M18.7374 17.2567H11.76M18.7374 17.2567H11.76M11.76 17.2567C9.90258 17.2567 8.59008 17.2549 7.59588 17.112M11.76 17.2567L7.59588 17.112M7.59588 17.112C6.62867 16.973 6.07323 16.714 5.66331 16.2759L7.59588 17.112ZM3.7505 1.50795L3.75339 1.50216L3.7505 1.50795Z" stroke="#374B8F" stroke-width="1.5"/>
<path d="M7.18216 21.5C8.27218 21.5 9.15582 22.3955 9.15582 23.5C9.15582 24.6045 8.27218 25.4999 7.18216 25.4999C6.09213 25.4999 5.2085 24.6045 5.2085 23.5C5.2085 22.3955 6.09213 21.5 7.18216 21.5Z" fill="#374B8F"/>
<path d="M19.024 22.25C19.6904 22.25 20.2476 22.8002 20.2476 23.5C20.2476 24.1997 19.6904 24.7499 19.024 24.7499C18.3575 24.7499 17.8003 24.1997 17.8003 23.5C17.8003 22.8002 18.3575 22.25 19.024 22.25Z" fill="#374B8F" stroke="#374B8F" stroke-width="1.5"/>
</svg>
