<svg width="24" height="23" viewBox="0 0 24 23" fill="none" xmlns="http://www.w3.org/2000/svg">
<path d="M17.5 0.5C15.9813 0.5 14.6063 1.24343 13.6112 2.44555L12.2434 4.08974C12.109 4.25204 11.8917 4.25204 11.7573 4.08974C11.7573 4.08974 10.3923 2.44181 10.3895 2.44555C9.39369 1.24343 8.01869 0.5 6.5 0.5C3.46228 0.5 1 3.47332 1 7.14151C1 8.52709 1.352 9.81306 1.95322 10.8774C1.95322 10.8774 2.20553 11.3605 2.50391 11.7204C2.80228 12.0803 11.0279 22.0135 11.0279 22.0135C11.2963 22.3377 11.6483 22.5 12 22.5C12.3517 22.5 12.7037 22.3377 12.9721 22.0135C12.9721 22.0135 21.1981 12.0803 21.4961 11.7204C21.7941 11.3605 22.0468 10.8774 22.0468 10.8774C22.648 9.81306 23 8.52709 23 7.14151C23 3.47332 20.5377 0.5 17.5 0.5ZM21.1829 10.8678C21.1829 10.8678 20.9726 11.1791 20.5563 11.6818C20.14 12.1845 12.4861 21.4266 12.4861 21.4266C12.3517 21.5889 12.176 21.6698 12 21.6698C11.824 21.6698 11.6483 21.5889 11.5139 21.4266C11.5139 21.4266 3.86 12.1841 3.44372 11.6814C3.02744 11.1787 2.81706 10.8674 2.81706 10.8674C2.11547 9.8583 1.6875 8.56279 1.6875 7.14151C1.6875 3.932 3.84212 1.33019 6.5 1.33019C7.82894 1.33019 9.03206 1.98023 9.90278 3.03249L9.90588 3.02875L11.5139 4.97015C11.7824 5.29434 12.2176 5.29434 12.4861 4.97015L14.0941 3.02875L14.0972 3.03249C14.9679 1.98023 16.1711 1.33019 17.5 1.33019C20.1579 1.33019 22.3125 3.932 22.3125 7.14151C22.3125 8.56279 21.8845 9.8583 21.1829 10.8678Z" fill="#374B8F" stroke="#374B8F"/>
</svg>
